<svg width="24" height="24" viewBox="0 0 24 24" fill="none" xmlns="http://www.w3.org/2000/svg">
<g clip-path="url(#clip0_491_2534)">
<path d="M20.9143 0H3.08571C1.38152 0 0 1.38152 0 3.08571V20.9143C0 22.6185 1.38152 24 3.08571 24H20.9143C22.6185 24 24 22.6185 24 20.9143V3.08571C24 1.38152 22.6185 0 20.9143 0Z" fill="#00DE5A"/>
<path d="M20.3815 10.5106L19.5067 12.5039L18.5174 10.5106H17.7561L19.1587 13.2759L18.5802 14.5666H19.3189L21.1202 10.5093H20.3815V10.5106ZM17.3335 13.5919H16.6108V13.3039C16.3495 13.5293 16.0375 13.6546 15.6588 13.6546C14.7935 13.6546 14.1162 12.9506 14.1162 12.0506C14.1162 11.1506 14.7935 10.4466 15.6588 10.4466C16.0362 10.4466 16.3495 10.5719 16.6108 10.7973V10.5093H17.3335V13.5919ZM16.6948 12.0506C16.6948 11.4693 16.2895 11.0279 15.7508 11.0279C15.2135 11.0279 14.8068 11.4693 14.8068 12.0506C14.8068 12.6319 15.2121 13.0733 15.7508 13.0733C16.2895 13.0733 16.6948 12.6319 16.6948 12.0506ZM10.5215 14.5666H11.2761V13.3306C11.5308 13.5399 11.8335 13.6546 12.1962 13.6546C13.0615 13.6546 13.7388 12.9506 13.7388 12.0506C13.7388 11.1506 13.0615 10.4466 12.1962 10.4466C11.8188 10.4466 11.5055 10.5719 11.2442 10.7973V10.5093H10.5215V14.5666ZM12.1041 11.0293C12.6415 11.0293 13.0482 11.4706 13.0482 12.0519C13.0482 12.6333 12.6428 13.0746 12.1041 13.0746C11.5668 13.0746 11.1602 12.6333 11.1602 12.0519C11.1602 11.4706 11.5655 11.0293 12.1041 11.0293Z" fill="black"/>
<path d="M9.16944 12.1453C9.16944 13.8826 7.76145 15.2907 6.0241 15.2907C4.28678 15.2907 2.87878 13.8826 2.87878 12.1453C2.87878 10.408 4.28678 9 6.0241 9C7.76145 9 9.16944 10.408 9.16944 12.1453ZM6.55078 10.668V12.2493L5.45212 10.668H4.54545V13.624H5.49744V12.0427L6.59611 13.624H7.50278V10.668H6.55078Z" fill="black"/>
</g>
<defs>
<clipPath id="clip0_491_2534">
<rect width="24" height="24" fill="white"/>
</clipPath>
</defs>
</svg>
