<svg width="24" height="25" viewBox="0 0 24 25" fill="none" xmlns="http://www.w3.org/2000/svg">
<path d="M18.7778 8.15983C18.7778 6.26092 18.0286 4.43979 16.695 3.09706C15.3615 1.75434 13.5527 1 11.6667 1C9.78074 1 7.972 1.75434 6.63841 3.09706C5.30482 4.43979 4.55562 6.26092 4.55562 8.15983C4.55562 16.513 1.00006 18.8996 1.00006 18.8996H22.3334C22.3334 18.8996 18.7778 16.513 18.7778 8.15983Z" stroke="#262626" stroke-width="2" stroke-linecap="round" stroke-linejoin="round"/>
<path d="M13.7167 22.4775C13.5083 22.8392 13.2093 23.1394 12.8494 23.3481C12.4896 23.5568 12.0816 23.6666 11.6663 23.6666C11.2511 23.6666 10.8431 23.5568 10.4833 23.3481C10.1234 23.1394 9.82433 22.8392 9.61597 22.4775" stroke="#262626" stroke-width="2" stroke-linecap="round" stroke-linejoin="round"/>
</svg>
