<svg width="24" height="24" viewBox="0 0 24 24" fill="none" xmlns="http://www.w3.org/2000/svg">
<path d="M17.3333 9.36987C17.3333 7.94569 16.7714 6.57984 15.7712 5.5728C14.771 4.56575 13.4145 4 12 4C10.5855 4 9.22896 4.56575 8.22876 5.5728C7.22857 6.57984 6.66667 7.94569 6.66667 9.36987C6.66667 15.6347 4 17.4247 4 17.4247H20C20 17.4247 17.3333 15.6347 17.3333 9.36987Z" stroke="#262626" stroke-width="1.75" stroke-linecap="round" stroke-linejoin="round"/>
<path d="M13.5375 20.1082C13.3812 20.3794 13.1569 20.6046 12.887 20.7611C12.6171 20.9176 12.3111 21 11.9997 21C11.6882 21 11.3823 20.9176 11.1124 20.7611C10.8425 20.6046 10.6182 20.3794 10.4619 20.1082" stroke="#262626" stroke-width="1.75" stroke-linecap="round" stroke-linejoin="round"/>
<circle cx="21.5" cy="2.5" r="2.5" fill="#8749FE"/>
</svg>
