<svg width="24" height="24" viewBox="0 0 24 24" fill="none" xmlns="http://www.w3.org/2000/svg">
<path fill-rule="evenodd" clip-rule="evenodd" d="M11.9976 5.58481L10.9081 4.50032C10.3974 3.98516 9.78989 3.5761 9.1205 3.29669C8.4511 3.01729 7.73304 2.87305 7.00767 2.8723C6.2823 2.87154 5.56394 3.01428 4.89396 3.29229C4.22398 3.57031 3.61561 3.9781 3.10389 4.4922C2.59216 5.0063 2.18718 5.61654 1.91226 6.2878C1.63734 6.95905 1.49793 7.67806 1.50203 8.40342C1.50614 9.12878 1.65368 9.84616 1.93618 10.5143C2.21867 11.1824 2.63053 11.788 3.14805 12.2963L12.0074 21.1148L12.0094 21.1128L12.0355 21.1388L20.8541 12.2794C21.3692 11.7687 21.7783 11.1612 22.0577 10.4918C22.3371 9.82241 22.4813 9.10435 22.4821 8.37898C22.4828 7.65361 22.3401 6.93525 22.0621 6.26527C21.7841 5.59529 21.3763 4.98693 20.8622 4.4752C20.3481 3.96347 19.7378 3.55849 19.0666 3.28357C18.3953 3.00866 17.6763 2.86924 16.951 2.87334C16.2256 2.87745 15.5082 3.02499 14.8401 3.30749C14.172 3.58998 13.5664 4.00185 13.0581 4.51936L11.9976 5.58481Z" fill="#F84E3E"/>
</svg>
