<svg width="24" height="24" viewBox="0 0 24 24" fill="none" xmlns="http://www.w3.org/2000/svg">
<path d="M7.00689 3.74727C7.61675 3.74792 8.2203 3.86961 8.78311 4.1045C9.34601 4.33946 9.85701 4.68345 10.2864 5.11666L10.2903 5.12055L11.3807 6.20495L12.0003 6.82267L12.618 6.2021L13.6771 5.13617L13.6781 5.13715L13.682 5.13225C14.1094 4.69711 14.6189 4.35072 15.1806 4.11317C15.7424 3.87561 16.3462 3.75217 16.9561 3.74871C17.566 3.74529 18.1709 3.86209 18.7353 4.09324C19.2996 4.3244 19.8122 4.66541 20.2444 5.09562C20.6767 5.52594 21.02 6.03771 21.2537 6.6011C21.4874 7.16426 21.608 7.76794 21.6075 8.37764C21.6068 8.98761 21.4852 9.59193 21.2502 10.1548C21.0153 10.7177 20.6713 11.2287 20.2381 11.6582L20.2342 11.6621L12.0325 19.9008L12.007 19.8754L12.0041 19.8774L3.76542 11.6757L3.7615 11.6718L3.60195 11.5081C3.24088 11.1166 2.95027 10.6647 2.74242 10.1732C2.50493 9.61143 2.38046 9.00845 2.37699 8.3986C2.37354 7.78871 2.49039 7.18388 2.72152 6.61948C2.9527 6.05501 3.29357 5.54166 3.72389 5.10935C4.15421 4.67704 4.66599 4.33379 5.22938 4.10001C5.79271 3.86628 6.39699 3.74664 7.00689 3.74727Z" stroke="#4C4C4C" stroke-width="1.75"/>
</svg>
